<svg xmlns="http://www.w3.org/2000/svg" viewBox="0 10.350000381469727 283.739990234375 36.529998779296875" data-asc="0.927734375" width="283.739990234375" height="36.529998779296875"><defs/><g fill="#302a2a"><g transform="translate(0, 0)"><path d="M6.18 33.18L6.18 46.39L0 46.39L0 10.84L13.60 10.84Q19.56 10.84 23.06 13.94Q26.56 17.04 26.56 22.14Q26.56 27.37 23.13 30.27Q19.70 33.18 13.53 33.18L6.18 33.18M6.18 28.22L13.60 28.22Q16.89 28.22 18.63 26.67Q20.36 25.12 20.36 22.19Q20.36 19.31 18.60 17.59Q16.85 15.87 13.77 15.82L6.18 15.82L6.18 28.22ZM60.33 29.54Q60.33 34.77 58.52 38.71Q56.71 42.65 53.36 44.76Q50 46.88 45.63 46.88Q41.31 46.88 37.93 44.76Q34.55 42.65 32.70 38.75Q30.86 34.84 30.83 29.74L30.83 27.73Q30.83 22.53 32.68 18.55Q34.52 14.58 37.88 12.46Q41.24 10.35 45.58 10.35Q49.93 10.35 53.28 12.44Q56.64 14.53 58.47 18.44Q60.30 22.36 60.33 27.56L60.33 29.54M54.15 27.69Q54.15 21.78 51.92 18.63Q49.68 15.48 45.58 15.48Q41.58 15.48 39.32 18.62Q37.06 21.75 37.01 27.49L37.01 29.54Q37.01 35.40 39.29 38.60Q41.58 41.80 45.63 41.80Q49.73 41.80 51.94 38.67Q54.15 35.55 54.15 29.54L54.15 27.69ZM85.06 37.23Q85.06 34.89 83.41 33.62Q81.76 32.35 77.47 31.05Q73.17 29.76 70.63 28.17Q65.77 25.12 65.77 20.21Q65.77 15.92 69.27 13.13Q72.78 10.35 78.37 10.35Q82.08 10.35 84.99 11.72Q87.89 13.09 89.55 15.61Q91.21 18.14 91.21 21.22L85.06 21.22Q85.06 18.43 83.31 16.86Q81.57 15.28 78.32 15.28Q75.29 15.28 73.62 16.58Q71.95 17.87 71.95 20.19Q71.95 22.14 73.75 23.45Q75.56 24.76 79.71 25.99Q83.86 27.22 86.38 28.80Q88.89 30.37 90.06 32.41Q91.24 34.45 91.24 37.18Q91.24 41.63 87.83 44.25Q84.42 46.88 78.59 46.88Q74.73 46.88 71.50 45.45Q68.26 44.02 66.47 41.50Q64.67 38.99 64.67 35.64L70.85 35.64Q70.85 38.67 72.85 40.33Q74.85 41.99 78.59 41.99Q81.81 41.99 83.44 40.69Q85.06 39.38 85.06 37.23ZM122.34 15.82L111.25 15.82L111.25 46.39L105.13 46.39L105.13 15.82L94.14 15.82L94.14 10.84L122.34 10.84L122.34 15.82ZM145.63 33.18L145.63 46.39L139.45 46.39L139.45 10.84L153.05 10.84Q159.01 10.84 162.51 13.94Q166.02 17.04 166.02 22.14Q166.02 27.37 162.59 30.27Q159.16 33.18 152.98 33.18L145.63 33.18M145.63 28.22L153.05 28.22Q156.35 28.22 158.08 26.67Q159.81 25.12 159.81 22.19Q159.81 19.31 158.06 17.59Q156.30 15.87 153.22 15.82L145.63 15.82L145.63 28.22ZM184.47 32.69L177.59 32.69L177.59 46.39L171.41 46.39L171.41 10.84L183.91 10.84Q190.06 10.84 193.41 13.60Q196.75 16.36 196.75 21.58Q196.75 25.15 195.03 27.55Q193.31 29.96 190.23 31.25L198.22 46.07L198.22 46.39L191.60 46.39L184.47 32.69M177.59 27.73L183.94 27.73Q187.06 27.73 188.82 26.16Q190.58 24.58 190.58 21.85Q190.58 18.99 188.95 17.43Q187.33 15.87 184.11 15.82L177.59 15.82L177.59 27.73ZM209.13 46.39L202.98 46.39L202.98 10.84L209.13 10.84L209.13 46.39ZM224.73 10.84L234.99 38.09L245.21 10.84L253.20 10.84L253.20 46.39L247.05 46.39L247.05 34.67L247.66 18.99L237.16 46.39L232.74 46.39L222.27 19.02L222.88 34.67L222.88 46.39L216.72 46.39L216.72 10.84L224.73 10.84ZM281.27 30.52L266.67 30.52L266.67 41.46L283.74 41.46L283.74 46.39L260.50 46.39L260.50 10.84L283.57 10.84L283.57 15.82L266.67 15.82L266.67 25.63L281.27 25.63L281.27 30.52Z"/></g></g></svg>